<?xml version="1.0" standalone="no"?>
<!DOCTYPE svg PUBLIC "-//W3C//DTD SVG 20010904//EN"
 "http://www.w3.org/TR/2001/REC-SVG-20010904/DTD/svg10.dtd">
<svg version="1.0" xmlns="http://www.w3.org/2000/svg"
 width="1428.000000pt" height="1232.000000pt" viewBox="0 0 1428.000000 1232.000000"
 preserveAspectRatio="xMidYMid meet">

<g transform="translate(0.000000,1232.000000) scale(0.100000,-0.100000)"
fill="#000000" stroke="none">
<path d="M0 6140 c0 -4087 3 -6140 10 -6140 6 0 10 120 10 340 l0 340 760 0
760 0 0 -340 c0 -220 4 -340 10 -340 6 0 10 120 10 340 l0 340 370 0 370 0 0
-340 c0 -220 4 -340 10 -340 6 0 10 120 10 340 l0 340 370 0 370 0 0 -340 c0
-220 4 -340 10 -340 6 0 10 120 10 340 l0 340 370 0 370 0 0 -340 c0 -220 4
-340 10 -340 6 0 10 120 10 340 l0 340 500 0 500 0 0 -340 c0 -220 4 -340 10
-340 6 0 10 120 10 340 l0 340 495 0 495 0 0 -340 c0 -220 4 -340 10 -340 6 0
10 120 10 340 l0 340 500 0 500 0 0 -340 c0 -220 4 -340 10 -340 6 0 10 120
10 340 l0 340 370 0 370 0 0 -340 c0 -220 4 -340 10 -340 6 0 10 120 10 340
l0 340 370 0 370 0 0 -340 0 -340 2545 0 2545 0 0 340 0 340 370 0 370 0 0
-340 c0 -220 4 -340 10 -340 7 0 10 2053 10 6140 l0 6140 -7120 0 -7120 0 0
-6140z m1540 5240 l0 -880 -760 0 -760 0 0 880 0 880 760 0 760 0 0 -880z
m760 0 l0 -880 -370 0 -370 0 0 880 0 880 370 0 370 0 0 -880z m760 0 l0 -880
-370 0 -370 0 0 880 0 880 370 0 370 0 0 -880z m760 0 l0 -880 -370 0 -370 0
0 880 0 880 370 0 370 0 0 -880z m1020 0 l0 -880 -500 0 -500 0 0 880 0 880
500 0 500 0 0 -880z m1010 0 l0 -880 -495 0 -495 0 0 880 0 880 495 0 495 0 0
-880z m1020 0 l0 -880 -500 0 -500 0 0 880 0 880 500 0 500 0 0 -880z m760 0
l0 -880 -370 0 -370 0 0 880 0 880 370 0 370 0 0 -880z m760 0 l0 -880 -370 0
-370 0 0 880 0 880 370 0 370 0 0 -880z m760 0 l0 -880 -370 0 -370 0 0 880 0
880 370 0 370 0 0 -880z m760 0 l0 -880 -370 0 -370 0 0 880 0 880 370 0 370
0 0 -880z m1020 0 l0 -880 -500 0 -500 0 0 880 0 880 500 0 500 0 0 -880z
m1020 0 l0 -880 -500 0 -500 0 0 880 0 880 500 0 500 0 0 -880z m760 0 l0
-880 -370 0 -370 0 0 880 0 880 370 0 370 0 0 -880z m750 0 l0 -880 -365 0
-365 0 0 880 0 880 365 0 365 0 0 -880z m760 0 l0 -880 -370 0 -370 0 0 880 0
880 370 0 370 0 0 -880z m-12680 -1240 l0 -340 -760 0 -760 0 0 340 0 340 760
0 760 0 0 -340z m760 0 l0 -340 -370 0 -370 0 0 340 0 340 370 0 370 0 0 -340z
m6090 0 l0 -340 -370 0 -370 0 0 340 0 340 370 0 370 0 0 -340z m760 0 l0
-340 -370 0 -370 0 0 340 0 340 370 0 370 0 0 -340z m760 0 l0 -340 -370 0
-370 0 0 340 0 340 370 0 370 0 0 -340z m1020 0 l0 -340 -500 0 -500 0 0 340
0 340 500 0 500 0 0 -340z m1020 0 l0 -340 -500 0 -500 0 0 340 0 340 500 0
500 0 0 -340z m760 0 l0 -340 -370 0 -370 0 0 340 0 340 370 0 370 0 0 -340z
m750 0 l0 -340 -365 0 -365 0 0 340 0 340 365 0 365 0 0 -340z m760 0 l0 -340
-370 0 -370 0 0 340 0 340 370 0 370 0 0 -340z m-12680 -700 l0 -340 -760 0
-760 0 0 340 0 340 760 0 760 0 0 -340z m3300 0 l0 -340 -500 0 -500 0 0 340
0 340 500 0 500 0 0 -340z m1010 0 l0 -340 -495 0 -495 0 0 340 0 340 495 0
495 0 0 -340z m3300 0 l0 -340 -370 0 -370 0 0 340 0 340 370 0 370 0 0 -340z
m760 0 l0 -340 -370 0 -370 0 0 340 0 340 370 0 370 0 0 -340z m2800 0 l0
-340 -370 0 -370 0 0 340 0 340 370 0 370 0 0 -340z m750 0 l0 -340 -365 0
-365 0 0 340 0 340 365 0 365 0 0 -340z m760 0 l0 -340 -370 0 -370 0 0 340 0
340 370 0 370 0 0 -340z m-12680 -700 l0 -340 -760 0 -760 0 0 340 0 340 760
0 760 0 0 -340z m2280 0 l0 -340 -370 0 -370 0 0 340 0 340 370 0 370 0 0
-340z m1020 0 l0 -340 -500 0 -500 0 0 340 0 340 500 0 500 0 0 -340z m1010 0
l0 -340 -495 0 -495 0 0 340 0 340 495 0 495 0 0 -340z m1020 0 l0 -340 -500
0 -500 0 0 340 0 340 500 0 500 0 0 -340z m2280 0 l0 -340 -370 0 -370 0 0
340 0 340 370 0 370 0 0 -340z m760 0 l0 -340 -370 0 -370 0 0 340 0 340 370
0 370 0 0 -340z m4310 0 l0 -340 -370 0 -370 0 0 340 0 340 370 0 370 0 0
-340z m-12680 -700 l0 -340 -760 0 -760 0 0 340 0 340 760 0 760 0 0 -340z
m3300 0 l0 -340 -500 0 -500 0 0 340 0 340 500 0 500 0 0 -340z m1010 0 l0
-340 -495 0 -495 0 0 340 0 340 495 0 495 0 0 -340z m3300 0 l0 -340 -370 0
-370 0 0 340 0 340 370 0 370 0 0 -340z m760 0 l0 -340 -370 0 -370 0 0 340 0
340 370 0 370 0 0 -340z m4310 0 l0 -340 -370 0 -370 0 0 340 0 340 370 0 370
0 0 -340z m-12680 -700 l0 -340 -760 0 -760 0 0 340 0 340 760 0 760 0 0 -340z
m760 0 l0 -340 -370 0 -370 0 0 340 0 340 370 0 370 0 0 -340z m6090 0 l0
-340 -370 0 -370 0 0 340 0 340 370 0 370 0 0 -340z m760 0 l0 -340 -370 0
-370 0 0 340 0 340 370 0 370 0 0 -340z m760 0 l0 -340 -370 0 -370 0 0 340 0
340 370 0 370 0 0 -340z m3550 0 l0 -340 -365 0 -365 0 0 340 0 340 365 0 365
0 0 -340z m760 0 l0 -340 -370 0 -370 0 0 340 0 340 370 0 370 0 0 -340z
m-12680 -700 l0 -340 -760 0 -760 0 0 340 0 340 760 0 760 0 0 -340z m760 0
l0 -340 -370 0 -370 0 0 340 0 340 370 0 370 0 0 -340z m760 0 l0 -340 -370 0
-370 0 0 340 0 340 370 0 370 0 0 -340z m760 0 l0 -340 -370 0 -370 0 0 340 0
340 370 0 370 0 0 -340z m3050 0 l0 -340 -500 0 -500 0 0 340 0 340 500 0 500
0 0 -340z m760 0 l0 -340 -370 0 -370 0 0 340 0 340 370 0 370 0 0 -340z m760
0 l0 -340 -370 0 -370 0 0 340 0 340 370 0 370 0 0 -340z m760 0 l0 -340 -370
0 -370 0 0 340 0 340 370 0 370 0 0 -340z m760 0 l0 -340 -370 0 -370 0 0 340
0 340 370 0 370 0 0 -340z m4310 0 l0 -340 -370 0 -370 0 0 340 0 340 370 0
370 0 0 -340z m-12680 -700 l0 -340 -760 0 -760 0 0 340 0 340 760 0 760 0 0
-340z m760 0 l0 -340 -370 0 -370 0 0 340 0 340 370 0 370 0 0 -340z m760 0
l0 -340 -370 0 -370 0 0 340 0 340 370 0 370 0 0 -340z m760 0 l0 -340 -370 0
-370 0 0 340 0 340 370 0 370 0 0 -340z m3050 0 l0 -340 -500 0 -500 0 0 340
0 340 500 0 500 0 0 -340z m760 0 l0 -340 -370 0 -370 0 0 340 0 340 370 0
370 0 0 -340z m760 0 l0 -340 -370 0 -370 0 0 340 0 340 370 0 370 0 0 -340z
m760 0 l0 -340 -370 0 -370 0 0 340 0 340 370 0 370 0 0 -340z m760 0 l0 -340
-370 0 -370 0 0 340 0 340 370 0 370 0 0 -340z m2800 0 l0 -340 -370 0 -370 0
0 340 0 340 370 0 370 0 0 -340z m750 0 l0 -340 -365 0 -365 0 0 340 0 340
365 0 365 0 0 -340z m760 0 l0 -340 -370 0 -370 0 0 340 0 340 370 0 370 0 0
-340z m-12680 -700 l0 -340 -760 0 -760 0 0 340 0 340 760 0 760 0 0 -340z
m760 0 l0 -340 -370 0 -370 0 0 340 0 340 370 0 370 0 0 -340z m760 0 l0 -340
-370 0 -370 0 0 340 0 340 370 0 370 0 0 -340z m760 0 l0 -340 -370 0 -370 0
0 340 0 340 370 0 370 0 0 -340z m3050 0 l0 -340 -500 0 -500 0 0 340 0 340
500 0 500 0 0 -340z m760 0 l0 -340 -370 0 -370 0 0 340 0 340 370 0 370 0 0
-340z m760 0 l0 -340 -370 0 -370 0 0 340 0 340 370 0 370 0 0 -340z m760 0
l0 -340 -370 0 -370 0 0 340 0 340 370 0 370 0 0 -340z m760 0 l0 -340 -370 0
-370 0 0 340 0 340 370 0 370 0 0 -340z m2800 0 l0 -340 -370 0 -370 0 0 340
0 340 370 0 370 0 0 -340z m750 0 l0 -340 -365 0 -365 0 0 340 0 340 365 0
365 0 0 -340z m760 0 l0 -340 -370 0 -370 0 0 340 0 340 370 0 370 0 0 -340z
m-12680 -700 l0 -340 -760 0 -760 0 0 340 0 340 760 0 760 0 0 -340z m760 0
l0 -340 -370 0 -370 0 0 340 0 340 370 0 370 0 0 -340z m760 0 l0 -340 -370 0
-370 0 0 340 0 340 370 0 370 0 0 -340z m760 0 l0 -340 -370 0 -370 0 0 340 0
340 370 0 370 0 0 -340z m3050 0 l0 -340 -500 0 -500 0 0 340 0 340 500 0 500
0 0 -340z m760 0 l0 -340 -370 0 -370 0 0 340 0 340 370 0 370 0 0 -340z m760
0 l0 -340 -370 0 -370 0 0 340 0 340 370 0 370 0 0 -340z m760 0 l0 -340 -370
0 -370 0 0 340 0 340 370 0 370 0 0 -340z m760 0 l0 -340 -370 0 -370 0 0 340
0 340 370 0 370 0 0 -340z m2800 0 l0 -340 -370 0 -370 0 0 340 0 340 370 0
370 0 0 -340z m750 0 l0 -340 -365 0 -365 0 0 340 0 340 365 0 365 0 0 -340z
m760 0 l0 -340 -370 0 -370 0 0 340 0 340 370 0 370 0 0 -340z m-12680 -700
l0 -340 -760 0 -760 0 0 340 0 340 760 0 760 0 0 -340z m760 0 l0 -340 -370 0
-370 0 0 340 0 340 370 0 370 0 0 -340z m4570 0 l0 -340 -500 0 -500 0 0 340
0 340 500 0 500 0 0 -340z m760 0 l0 -340 -370 0 -370 0 0 340 0 340 370 0
370 0 0 -340z m760 0 l0 -340 -370 0 -370 0 0 340 0 340 370 0 370 0 0 -340z
m760 0 l0 -340 -370 0 -370 0 0 340 0 340 370 0 370 0 0 -340z m760 0 l0 -340
-370 0 -370 0 0 340 0 340 370 0 370 0 0 -340z m2800 0 l0 -340 -370 0 -370 0
0 340 0 340 370 0 370 0 0 -340z m750 0 l0 -340 -365 0 -365 0 0 340 0 340
365 0 365 0 0 -340z m760 0 l0 -340 -370 0 -370 0 0 340 0 340 370 0 370 0 0
-340z m-12680 -700 l0 -340 -760 0 -760 0 0 340 0 340 760 0 760 0 0 -340z
m760 0 l0 -340 -370 0 -370 0 0 340 0 340 370 0 370 0 0 -340z m760 0 l0 -340
-370 0 -370 0 0 340 0 340 370 0 370 0 0 -340z m3810 0 l0 -340 -500 0 -500 0
0 340 0 340 500 0 500 0 0 -340z m760 0 l0 -340 -370 0 -370 0 0 340 0 340
370 0 370 0 0 -340z m760 0 l0 -340 -370 0 -370 0 0 340 0 340 370 0 370 0 0
-340z m5830 0 l0 -340 -370 0 -370 0 0 340 0 340 370 0 370 0 0 -340z m-12680
-700 l0 -340 -760 0 -760 0 0 340 0 340 760 0 760 0 0 -340z m760 0 l0 -340
-370 0 -370 0 0 340 0 340 370 0 370 0 0 -340z m4570 0 l0 -340 -500 0 -500 0
0 340 0 340 500 0 500 0 0 -340z m760 0 l0 -340 -370 0 -370 0 0 340 0 340
370 0 370 0 0 -340z m3300 0 l0 -340 -500 0 -500 0 0 340 0 340 500 0 500 0 0
-340z m1020 0 l0 -340 -500 0 -500 0 0 340 0 340 500 0 500 0 0 -340z m-10410
-700 l0 -340 -760 0 -760 0 0 340 0 340 760 0 760 0 0 -340z m760 0 l0 -340
-370 0 -370 0 0 340 0 340 370 0 370 0 0 -340z m4570 0 l0 -340 -500 0 -500 0
0 340 0 340 500 0 500 0 0 -340z m760 0 l0 -340 -370 0 -370 0 0 340 0 340
370 0 370 0 0 -340z m2280 0 l0 -340 -370 0 -370 0 0 340 0 340 370 0 370 0 0
-340z m1020 0 l0 -340 -500 0 -500 0 0 340 0 340 500 0 500 0 0 -340z m1020 0
l0 -340 -500 0 -500 0 0 340 0 340 500 0 500 0 0 -340z m760 0 l0 -340 -370 0
-370 0 0 340 0 340 370 0 370 0 0 -340z m-11170 -700 l0 -340 -760 0 -760 0 0
340 0 340 760 0 760 0 0 -340z m760 0 l0 -340 -370 0 -370 0 0 340 0 340 370
0 370 0 0 -340z m760 0 l0 -340 -370 0 -370 0 0 340 0 340 370 0 370 0 0 -340z
m760 0 l0 -340 -370 0 -370 0 0 340 0 340 370 0 370 0 0 -340z m3050 0 l0
-340 -500 0 -500 0 0 340 0 340 500 0 500 0 0 -340z m760 0 l0 -340 -370 0
-370 0 0 340 0 340 370 0 370 0 0 -340z m3300 0 l0 -340 -500 0 -500 0 0 340
0 340 500 0 500 0 0 -340z m1020 0 l0 -340 -500 0 -500 0 0 340 0 340 500 0
500 0 0 -340z"/>
<path d="M1750 10933 l-21 -27 22 -8 c15 -6 25 -4 34 8 7 10 19 15 29 11 22
-9 20 -24 -4 -37 -19 -10 -29 -51 -12 -49 29 5 46 -18 36 -46 -8 -20 -41 -19
-52 1 -10 17 -43 16 -49 -1 -2 -6 6 -21 17 -33 26 -27 79 -29 111 -4 27 23 31
79 6 97 -12 8 -13 15 -5 23 17 17 12 64 -8 79 -31 23 -80 16 -104 -14z"/>
<path d="M2503 11619 c-8 -51 -7 -62 5 -66 8 -4 23 -1 33 5 26 17 37 15 49 -8
8 -14 8 -26 0 -40 -13 -24 -28 -25 -50 -5 -19 17 -50 10 -50 -11 0 -41 95 -59
130 -24 31 31 27 93 -7 120 -15 12 -35 19 -45 17 -11 -3 -18 0 -18 9 0 10 12
14 40 14 36 0 40 3 40 25 0 24 -3 25 -59 25 l-58 0 -10 -61z"/>
<path d="M2533 11290 c-18 -16 -33 -39 -33 -51 0 -20 1 -21 25 -5 13 9 27 16
30 16 3 0 5 -36 5 -80 0 -73 2 -80 20 -80 19 0 20 7 20 115 0 131 -7 140 -67
85z"/>
<path d="M2507 10942 c-25 -28 -22 -52 8 -52 16 0 25 6 25 16 0 21 44 14 48
-8 2 -10 -16 -38 -41 -65 -40 -44 -67 -83 -67 -97 0 -3 36 -6 80 -6 73 0 80 2
80 20 0 17 -7 20 -40 20 -22 0 -40 3 -40 7 0 4 16 23 35 43 45 46 55 90 26
119 -27 27 -91 29 -114 3z"/>
<path d="M3267 11662 c-25 -28 -22 -52 8 -52 16 0 25 6 25 16 0 21 44 14 48
-8 2 -10 -16 -38 -41 -65 -40 -44 -67 -83 -67 -97 0 -3 36 -6 80 -6 73 0 80 2
80 20 0 17 -7 20 -40 20 -22 0 -40 3 -40 7 0 4 16 23 35 43 45 46 55 90 26
119 -27 27 -91 29 -114 3z"/>
<path d="M3267 11302 c-25 -28 -22 -52 8 -52 16 0 25 6 25 16 0 21 44 14 48
-8 2 -10 -16 -38 -41 -65 -40 -44 -67 -83 -67 -97 0 -3 36 -6 80 -6 73 0 80 2
80 20 0 17 -7 20 -40 20 -22 0 -40 3 -40 7 0 4 16 23 35 43 45 46 55 90 26
119 -27 27 -91 29 -114 3z"/>
<path d="M3288 10890 c-27 -37 -48 -78 -48 -89 0 -18 6 -21 45 -21 41 0 45 -2
45 -25 0 -20 5 -25 25 -25 20 0 25 5 25 25 0 16 6 25 15 25 8 0 15 9 15 20 0
11 -7 20 -15 20 -12 0 -15 14 -15 70 0 66 -1 70 -22 70 -17 -1 -36 -19 -70
-70z m42 -40 c0 -24 -4 -30 -21 -30 -20 0 -20 1 -2 30 9 17 19 30 20 30 2 0 3
-13 3 -30z"/>
<path d="M4053 11290 c-18 -16 -33 -39 -33 -51 0 -20 1 -21 25 -5 13 9 27 16
30 16 3 0 5 -36 5 -80 0 -73 2 -80 20 -80 19 0 20 7 20 115 0 131 -7 140 -67
85z"/>
<path d="M4053 10930 c-18 -16 -33 -39 -33 -51 0 -20 1 -21 25 -5 13 9 27 16
30 16 3 0 5 -36 5 -80 0 -73 2 -80 20 -80 19 0 20 7 20 115 0 131 -7 140 -67
85z"/>
<path d="M4203 10933 c-26 -39 -25 -153 1 -182 19 -21 70 -28 92 -13 22 14 34
52 34 107 0 85 -20 115 -77 115 -24 0 -37 -7 -50 -27z m75 -86 c2 -55 0 -68
-14 -74 -23 -8 -34 14 -34 69 0 58 8 80 29 76 12 -3 17 -18 19 -71z"/>
<path d="M5073 11290 c-18 -16 -33 -39 -33 -51 0 -20 1 -21 25 -5 13 9 27 16
30 16 3 0 5 -36 5 -80 0 -73 2 -80 20 -80 19 0 20 7 20 115 0 131 -7 140 -67
85z"/>
<path d="M5073 10930 c-18 -16 -33 -39 -33 -51 0 -20 1 -21 25 -5 13 9 27 16
30 16 3 0 5 -36 5 -80 0 -73 2 -80 20 -80 19 0 20 7 20 115 0 131 -7 140 -67
85z"/>
<path d="M5223 10933 c-26 -39 -25 -153 1 -182 19 -21 70 -28 92 -13 22 14 34
52 34 107 0 85 -20 115 -77 115 -24 0 -37 -7 -50 -27z m75 -86 c2 -55 0 -68
-14 -74 -23 -8 -34 14 -34 69 0 58 8 80 29 76 12 -3 17 -18 19 -71z"/>
<path d="M6074 11312 c-11 -7 -34 -45 -34 -56 0 -13 48 -5 54 9 3 8 15 15 26
15 33 0 25 -41 -16 -81 -35 -33 -64 -78 -64 -99 0 -6 29 -10 75 -10 68 0 75 2
75 20 0 16 -7 20 -35 20 -19 0 -35 3 -35 6 0 4 16 24 35 45 60 67 41 139 -36
139 -19 0 -39 -4 -45 -8z"/>
<path d="M6074 10952 c-11 -7 -34 -45 -34 -56 0 -13 48 -5 54 9 3 8 15 15 26
15 33 0 25 -41 -16 -81 -35 -33 -64 -78 -64 -99 0 -6 29 -10 75 -10 68 0 75 2
75 20 0 16 -7 20 -35 20 -19 0 -35 3 -35 6 0 4 16 24 35 45 60 67 41 139 -36
139 -19 0 -39 -4 -45 -8z"/>
<path d="M6254 10952 c-11 -7 -34 -45 -34 -56 0 -13 48 -5 54 9 3 8 15 15 26
15 33 0 25 -41 -16 -81 -35 -33 -64 -78 -64 -99 0 -6 29 -10 75 -10 68 0 75 2
75 20 0 16 -7 20 -35 20 -19 0 -35 3 -35 6 0 4 16 24 35 45 60 67 41 139 -36
139 -19 0 -39 -4 -45 -8z"/>
<path d="M7080 10904 c-14 -67 -5 -84 36 -65 34 15 56 -1 52 -38 -4 -31 -34
-40 -51 -16 -9 12 -19 14 -35 8 l-23 -9 21 -27 c30 -38 90 -38 119 -1 42 53
14 127 -48 127 -44 0 -33 21 15 27 31 4 40 10 42 28 3 21 0 22 -57 22 l-60 0
-11 -56z"/>
<path d="M7840 11293 l-21 -27 22 -8 c15 -6 25 -4 34 8 7 10 19 15 29 11 22
-9 20 -24 -4 -37 -19 -10 -29 -51 -12 -49 29 5 46 -18 36 -46 -8 -20 -41 -19
-52 1 -10 17 -43 16 -49 -1 -2 -6 6 -21 17 -33 26 -27 79 -29 111 -4 27 23 31
79 6 97 -12 8 -13 15 -5 23 17 17 12 64 -8 79 -31 23 -80 16 -104 -14z"/>
<path d="M7840 10933 l-21 -27 22 -8 c15 -6 25 -4 34 8 7 10 19 15 29 11 22
-9 20 -24 -4 -37 -19 -10 -29 -51 -12 -49 29 5 46 -18 36 -46 -8 -20 -41 -19
-52 1 -10 17 -43 16 -49 -1 -2 -6 6 -21 17 -33 26 -27 79 -29 111 -4 27 23 31
79 6 97 -12 8 -13 15 -5 23 17 17 12 64 -8 79 -31 23 -80 16 -104 -14z"/>
<path d="M8600 10904 c-14 -67 -5 -84 36 -65 34 15 56 -1 52 -38 -4 -31 -34
-40 -51 -16 -9 12 -19 14 -35 8 l-23 -9 21 -27 c30 -38 90 -38 119 -1 42 53
14 127 -48 127 -44 0 -33 21 15 27 31 4 40 10 42 28 3 21 0 22 -57 22 l-60 0
-11 -56z"/>
<path d="M9357 11302 c-25 -28 -22 -52 8 -52 16 0 25 6 25 16 0 21 44 14 48
-8 2 -10 -16 -38 -41 -65 -40 -44 -67 -83 -67 -97 0 -3 36 -6 80 -6 73 0 80 2
80 20 0 17 -7 20 -40 20 -22 0 -40 3 -40 7 0 4 16 23 35 43 45 46 55 90 26
119 -27 27 -91 29 -114 3z"/>
<path d="M9357 10942 c-25 -28 -22 -52 8 -52 16 0 25 6 25 16 0 21 44 14 48
-8 2 -10 -16 -38 -41 -65 -40 -44 -67 -83 -67 -97 0 -3 36 -6 80 -6 73 0 80 2
80 20 0 17 -7 20 -40 20 -22 0 -40 3 -40 7 0 4 16 23 35 43 45 46 55 90 26
119 -27 27 -91 29 -114 3z"/>
<path d="M10143 11290 c-18 -16 -33 -39 -33 -51 0 -20 1 -21 25 -5 13 9 27 16
30 16 3 0 5 -36 5 -80 0 -73 2 -80 20 -80 19 0 20 7 20 115 0 131 -7 140 -67
85z"/>
<path d="M10301 11294 c-16 -21 -21 -41 -21 -89 0 -78 24 -115 74 -115 53 0
71 29 71 115 0 58 -4 77 -19 94 -28 31 -79 28 -105 -5z m73 -30 c9 -24 7 -107
-3 -123 -5 -8 -16 -11 -25 -8 -12 5 -16 21 -16 70 0 35 3 67 7 70 11 12 31 7
37 -9z"/>
<path d="M10143 10930 c-18 -16 -33 -39 -33 -51 0 -20 1 -21 25 -5 13 9 27 16
30 16 3 0 5 -36 5 -80 0 -73 2 -80 20 -80 19 0 20 7 20 115 0 131 -7 140 -67
85z"/>
<path d="M11163 11290 c-18 -16 -33 -39 -33 -51 0 -20 1 -21 25 -5 13 9 27 16
30 16 3 0 5 -36 5 -80 0 -73 2 -80 20 -80 19 0 20 7 20 115 0 131 -7 140 -67
85z"/>
<path d="M11321 11294 c-16 -21 -21 -41 -21 -89 0 -78 24 -115 74 -115 53 0
71 29 71 115 0 58 -4 77 -19 94 -28 31 -79 28 -105 -5z m73 -30 c9 -24 7 -107
-3 -123 -5 -8 -16 -11 -25 -8 -12 5 -16 21 -16 70 0 35 3 67 7 70 11 12 31 7
37 -9z"/>
<path d="M11163 10930 c-18 -16 -33 -39 -33 -51 0 -20 1 -21 25 -5 13 9 27 16
30 16 3 0 5 -36 5 -80 0 -73 2 -80 20 -80 19 0 20 7 20 115 0 131 -7 140 -67
85z"/>
<path d="M12178 11610 c-27 -37 -48 -78 -48 -89 0 -18 6 -21 45 -21 41 0 45
-2 45 -25 0 -20 5 -25 25 -25 20 0 25 5 25 25 0 16 6 25 15 25 8 0 15 9 15 20
0 11 -7 20 -15 20 -12 0 -15 14 -15 70 0 66 -1 70 -22 70 -17 -1 -36 -19 -70
-70z m42 -40 c0 -24 -4 -30 -21 -30 -20 0 -20 1 -2 30 9 17 19 30 20 30 2 0 3
-13 3 -30z"/>
<path d="M12157 11302 c-25 -28 -22 -52 8 -52 16 0 25 6 25 16 0 21 44 14 48
-8 2 -10 -16 -38 -41 -65 -40 -44 -67 -83 -67 -97 0 -3 36 -6 80 -6 73 0 80 2
80 20 0 17 -7 20 -40 20 -22 0 -40 3 -40 7 0 4 16 23 35 43 45 46 55 90 26
119 -27 27 -91 29 -114 3z"/>
<path d="M12157 10942 c-25 -28 -22 -52 8 -52 16 0 25 6 25 16 0 21 44 14 48
-8 2 -10 -16 -38 -41 -65 -40 -44 -67 -83 -67 -97 0 -3 36 -6 80 -6 73 0 80 2
80 20 0 17 -7 20 -40 20 -22 0 -40 3 -40 7 0 4 16 23 35 43 45 46 55 90 26
119 -27 27 -91 29 -114 3z"/>
<path d="M12917 11662 c-25 -28 -22 -52 8 -52 16 0 25 6 25 16 0 21 44 14 48
-8 2 -10 -16 -38 -41 -65 -40 -44 -67 -83 -67 -97 0 -3 36 -6 80 -6 73 0 80 2
80 20 0 17 -7 20 -40 20 -22 0 -40 3 -40 7 0 4 16 23 35 43 45 46 55 90 26
119 -27 27 -91 29 -114 3z"/>
<path d="M12943 11290 c-18 -16 -33 -39 -33 -51 0 -20 1 -21 25 -5 13 9 27 16
30 16 3 0 5 -36 5 -80 0 -73 2 -80 20 -80 19 0 20 7 20 115 0 131 -7 140 -67
85z"/>
<path d="M12913 10899 c-8 -51 -7 -62 5 -66 8 -4 23 -1 33 5 26 17 37 15 49
-8 8 -14 8 -26 0 -40 -13 -24 -28 -25 -50 -5 -19 17 -50 10 -50 -11 0 -41 95
-59 130 -24 31 31 27 93 -7 120 -15 12 -35 19 -45 17 -11 -3 -18 0 -18 9 0 10
12 14 40 14 36 0 40 3 40 25 0 24 -3 25 -59 25 l-58 0 -10 -61z"/>
<path d="M13670 10933 l-21 -27 22 -8 c15 -6 25 -4 34 8 7 10 19 15 29 11 22
-9 20 -24 -4 -37 -19 -10 -29 -51 -12 -49 29 5 46 -18 36 -46 -8 -20 -41 -19
-52 1 -10 17 -43 16 -49 -1 -2 -6 6 -21 17 -33 26 -27 79 -29 111 -4 27 23 31
79 6 97 -12 8 -13 15 -5 23 17 17 12 64 -8 79 -31 23 -80 16 -104 -14z"/>
<path d="M223 10240 c-44 -40 -39 -176 7 -200 35 -19 77 -12 99 16 27 34 27
64 0 99 -18 22 -28 26 -55 23 -38 -4 -40 -1 -20 28 13 16 18 17 35 7 28 -17
51 -16 51 1 0 44 -79 62 -117 26z m75 -139 c-4 -38 -42 -36 -46 3 -2 16 2 32
9 37 20 12 40 -11 37 -40z"/>
<path d="M210 9533 l-21 -27 22 -8 c15 -6 25 -4 34 8 7 10 19 15 29 11 22 -9
20 -24 -4 -37 -19 -10 -29 -51 -12 -49 29 5 46 -18 36 -46 -8 -20 -41 -19 -52
1 -10 17 -43 16 -49 -1 -2 -6 6 -21 17 -33 26 -27 79 -29 111 -4 27 23 31 79
6 97 -12 8 -13 15 -5 23 17 17 12 64 -8 79 -31 23 -80 16 -104 -14z"/>
<path d="M476 9538 c-21 -29 -20 -35 5 -41 12 -3 22 0 26 9 3 8 14 14 24 14
26 0 25 -32 -2 -48 -22 -14 -21 -37 1 -37 18 0 34 -29 27 -49 -8 -20 -43 -21
-51 -1 -8 22 -46 19 -46 -3 0 -50 91 -71 130 -30 24 26 26 65 3 90 -13 14 -14
21 -5 30 18 18 14 53 -6 71 -28 25 -87 22 -106 -5z"/>
<path d="M754 9552 c-11 -7 -34 -45 -34 -56 0 -13 48 -5 54 9 3 8 15 15 26 15
33 0 25 -41 -16 -81 -35 -33 -64 -78 -64 -99 0 -6 29 -10 75 -10 68 0 75 2 75
20 0 16 -7 20 -35 20 -19 0 -35 3 -35 6 0 4 16 24 35 45 60 67 41 139 -36 139
-19 0 -39 -4 -45 -8z"/>
<path d="M224 8852 c-11 -7 -34 -45 -34 -56 0 -13 48 -5 54 9 3 8 15 15 26 15
33 0 25 -41 -16 -81 -35 -33 -64 -78 -64 -99 0 -6 29 -10 75 -10 68 0 75 2 75
20 0 16 -7 20 -35 20 -19 0 -35 3 -35 6 0 4 16 24 35 45 60 67 41 139 -36 139
-19 0 -39 -4 -45 -8z"/>
<path d="M477 8842 c-25 -28 -22 -52 8 -52 16 0 25 6 25 16 0 21 44 14 48 -8
2 -10 -16 -38 -41 -65 -40 -44 -67 -83 -67 -97 0 -3 36 -6 80 -6 73 0 80 2 80
20 0 17 -7 20 -40 20 -22 0 -40 3 -40 7 0 4 16 23 35 43 45 46 55 90 26 119
-27 27 -91 29 -114 3z"/>
<path d="M760 8785 c-27 -41 -50 -81 -50 -89 0 -11 13 -16 48 -18 40 -3 47 -6
50 -25 4 -30 42 -32 42 -3 0 11 7 23 15 26 8 4 15 15 15 25 0 10 -7 19 -15 19
-12 0 -15 14 -15 70 0 63 -2 70 -20 70 -13 0 -36 -24 -70 -75z m50 -35 c0 -23
-4 -30 -20 -30 -24 0 -25 4 -4 35 21 32 24 31 24 -5z"/>
<path d="M210 8133 l-21 -27 22 -8 c15 -6 25 -4 34 8 7 10 19 15 29 11 22 -9
20 -24 -4 -37 -19 -10 -29 -51 -12 -49 29 5 46 -18 36 -46 -8 -20 -41 -19 -52
1 -10 17 -43 16 -49 -1 -2 -6 6 -21 17 -33 26 -27 79 -29 111 -4 27 23 31 79
6 97 -12 8 -13 15 -5 23 17 17 12 64 -8 79 -31 23 -80 16 -104 -14z"/>
<path d="M476 8138 c-21 -29 -20 -35 5 -41 12 -3 22 0 26 9 3 8 14 14 24 14
26 0 25 -32 -2 -48 -22 -14 -21 -37 1 -37 18 0 34 -29 27 -49 -8 -20 -43 -21
-51 -1 -8 22 -46 19 -46 -3 0 -50 91 -71 130 -30 24 26 26 65 3 90 -13 14 -14
21 -5 30 18 18 14 53 -6 71 -28 25 -87 22 -106 -5z"/>
<path d="M760 8085 c-27 -41 -50 -81 -50 -89 0 -11 13 -16 48 -18 40 -3 47 -6
50 -25 4 -30 42 -32 42 -3 0 11 7 23 15 26 8 4 15 15 15 25 0 10 -7 19 -15 19
-12 0 -15 14 -15 70 0 63 -2 70 -20 70 -13 0 -36 -24 -70 -75z m50 -35 c0 -23
-4 -30 -20 -30 -24 0 -25 4 -4 35 21 32 24 31 24 -5z"/>
<path d="M223 7440 c-44 -40 -39 -176 7 -200 35 -19 77 -12 99 16 27 34 27 64
0 99 -18 22 -28 26 -55 23 -38 -4 -40 -1 -20 28 13 16 18 17 35 7 28 -17 51
-16 51 1 0 44 -79 62 -117 26z m75 -139 c-4 -38 -42 -36 -46 3 -2 16 2 32 9
37 20 12 40 -11 37 -40z"/>
<path d="M476 7438 c-21 -29 -20 -35 5 -41 12 -3 22 0 26 9 3 8 14 14 24 14
26 0 25 -32 -2 -48 -22 -14 -21 -37 1 -37 18 0 34 -29 27 -49 -8 -20 -43 -21
-51 -1 -8 22 -46 19 -46 -3 0 -50 91 -71 130 -30 24 26 26 65 3 90 -13 14 -14
21 -5 30 18 18 14 53 -6 71 -28 25 -87 22 -106 -5z"/>
<path d="M224 6752 c-11 -7 -34 -45 -34 -56 0 -13 48 -5 54 9 3 8 15 15 26 15
33 0 25 -41 -16 -81 -35 -33 -64 -78 -64 -99 0 -6 29 -10 75 -10 68 0 75 2 75
20 0 16 -7 20 -35 20 -19 0 -35 3 -35 6 0 4 16 24 35 45 60 67 41 139 -36 139
-19 0 -39 -4 -45 -8z"/>
<path d="M498 6690 c-27 -37 -48 -78 -48 -89 0 -18 6 -21 45 -21 41 0 45 -2
45 -25 0 -20 5 -25 25 -25 20 0 25 5 25 25 0 16 6 25 15 25 8 0 15 9 15 20 0
11 -7 20 -15 20 -12 0 -15 14 -15 70 0 66 -1 70 -22 70 -17 -1 -36 -19 -70
-70z m42 -40 c0 -24 -4 -30 -21 -30 -20 0 -20 1 -2 30 9 17 19 30 20 30 2 0 3
-13 3 -30z"/>
<path d="M224 6052 c-11 -7 -34 -45 -34 -56 0 -13 48 -5 54 9 3 8 15 15 26 15
33 0 25 -41 -16 -81 -35 -33 -64 -78 -64 -99 0 -6 29 -10 75 -10 68 0 75 2 75
20 0 16 -7 20 -35 20 -19 0 -35 3 -35 6 0 4 16 24 35 45 60 67 41 139 -36 139
-19 0 -39 -4 -45 -8z"/>
<path d="M477 6042 c-25 -28 -22 -52 8 -52 16 0 25 6 25 16 0 21 44 14 48 -8
2 -10 -16 -38 -41 -65 -40 -44 -67 -83 -67 -97 0 -3 36 -6 80 -6 73 0 80 2 80
20 0 17 -7 20 -40 20 -22 0 -40 3 -40 7 0 4 16 23 35 43 45 46 55 90 26 119
-27 27 -91 29 -114 3z"/>
<path d="M224 5352 c-11 -7 -34 -45 -34 -56 0 -13 48 -5 54 9 3 8 15 15 26 15
33 0 25 -41 -16 -81 -35 -33 -64 -78 -64 -99 0 -6 29 -10 75 -10 68 0 75 2 75
20 0 16 -7 20 -35 20 -19 0 -35 3 -35 6 0 4 16 24 35 45 60 67 41 139 -36 139
-19 0 -39 -4 -45 -8z"/>
<path d="M477 5342 c-25 -28 -22 -52 8 -52 16 0 25 6 25 16 0 21 44 14 48 -8
2 -10 -16 -38 -41 -65 -40 -44 -67 -83 -67 -97 0 -3 36 -6 80 -6 73 0 80 2 80
20 0 17 -7 20 -40 20 -22 0 -40 3 -40 7 0 4 16 23 35 43 45 46 55 90 26 119
-27 27 -91 29 -114 3z"/>
<path d="M224 4652 c-11 -7 -34 -45 -34 -56 0 -13 48 -5 54 9 3 8 15 15 26 15
33 0 25 -41 -16 -81 -35 -33 -64 -78 -64 -99 0 -6 29 -10 75 -10 68 0 75 2 75
20 0 16 -7 20 -35 20 -19 0 -35 3 -35 6 0 4 16 24 35 45 60 67 41 139 -36 139
-19 0 -39 -4 -45 -8z"/>
<path d="M477 4642 c-25 -28 -22 -52 8 -52 16 0 25 6 25 16 0 21 44 14 48 -8
2 -10 -16 -38 -41 -65 -40 -44 -67 -83 -67 -97 0 -3 36 -6 80 -6 73 0 80 2 80
20 0 17 -7 20 -40 20 -22 0 -40 3 -40 7 0 4 16 23 35 43 45 46 55 90 26 119
-27 27 -91 29 -114 3z"/>
<path d="M230 3885 c-27 -41 -50 -81 -50 -89 0 -11 13 -16 48 -18 40 -3 47 -6
50 -25 4 -30 42 -32 42 -3 0 11 7 23 15 26 8 4 15 15 15 25 0 10 -7 19 -15 19
-12 0 -15 14 -15 70 0 63 -2 70 -20 70 -13 0 -36 -24 -70 -75z m50 -35 c0 -23
-4 -30 -20 -30 -24 0 -25 4 -4 35 21 32 24 31 24 -5z"/>
<path d="M477 3942 c-25 -28 -22 -52 8 -52 16 0 25 6 25 16 0 21 44 14 48 -8
2 -10 -16 -38 -41 -65 -40 -44 -67 -83 -67 -97 0 -3 36 -6 80 -6 73 0 80 2 80
20 0 17 -7 20 -40 20 -22 0 -40 3 -40 7 0 4 16 23 35 43 45 46 55 90 26 119
-27 27 -91 29 -114 3z"/>
<path d="M210 3233 l-21 -27 22 -8 c15 -6 25 -4 34 8 7 10 19 15 29 11 22 -9
20 -24 -4 -37 -19 -10 -29 -51 -12 -49 29 5 46 -18 36 -46 -8 -20 -41 -19 -52
1 -10 17 -43 16 -49 -1 -2 -6 6 -21 17 -33 26 -27 79 -29 111 -4 27 23 31 79
6 97 -12 8 -13 15 -5 23 17 17 12 64 -8 79 -31 23 -80 16 -104 -14z"/>
<path d="M481 3234 c-30 -38 -30 -140 0 -178 42 -54 129 -23 129 47 0 51 -25
80 -66 75 -35 -4 -38 -1 -28 26 7 17 44 22 44 6 0 -5 11 -10 25 -10 29 0 31 7
9 38 -23 33 -86 31 -113 -4z m84 -114 c8 -25 -4 -50 -26 -50 -23 0 -36 44 -19
65 14 17 37 10 45 -15z"/>
<path d="M230 2485 c-27 -41 -50 -81 -50 -89 0 -11 13 -16 48 -18 40 -3 47 -6
50 -25 4 -30 42 -32 42 -3 0 11 7 23 15 26 8 4 15 15 15 25 0 10 -7 19 -15 19
-12 0 -15 14 -15 70 0 63 -2 70 -20 70 -13 0 -36 -24 -70 -75z m50 -35 c0 -23
-4 -30 -20 -30 -24 0 -25 4 -4 35 21 32 24 31 24 -5z"/>
<path d="M476 2538 c-21 -29 -20 -35 5 -41 12 -3 22 0 26 9 3 8 14 14 24 14
26 0 25 -32 -2 -48 -22 -14 -21 -37 1 -37 18 0 34 -29 27 -49 -8 -20 -43 -21
-51 -1 -8 22 -46 19 -46 -3 0 -50 91 -71 130 -30 24 26 26 65 3 90 -13 14 -14
21 -5 30 18 18 14 53 -6 71 -28 25 -87 22 -106 -5z"/>
<path d="M740 2533 l-21 -27 22 -8 c15 -6 25 -4 34 8 7 10 19 15 29 11 22 -9
20 -24 -4 -37 -19 -10 -29 -51 -12 -49 29 5 46 -18 36 -46 -8 -20 -41 -19 -52
1 -10 17 -43 16 -49 -1 -2 -6 6 -21 17 -33 26 -27 79 -29 111 -4 27 23 31 79
6 97 -12 8 -13 15 -5 23 17 17 12 64 -8 79 -31 23 -80 16 -104 -14z"/>
<path d="M230 1785 c-27 -41 -50 -81 -50 -89 0 -11 13 -16 48 -18 40 -3 47 -6
50 -25 4 -30 42 -32 42 -3 0 11 7 23 15 26 8 4 15 15 15 25 0 10 -7 19 -15 19
-12 0 -15 14 -15 70 0 63 -2 70 -20 70 -13 0 -36 -24 -70 -75z m50 -35 c0 -23
-4 -30 -20 -30 -24 0 -25 4 -4 35 21 32 24 31 24 -5z"/>
<path d="M477 1842 c-25 -28 -22 -52 8 -52 16 0 25 6 25 16 0 21 44 14 48 -8
2 -10 -16 -38 -41 -65 -40 -44 -67 -83 -67 -97 0 -3 36 -6 80 -6 73 0 80 2 80
20 0 17 -7 20 -40 20 -22 0 -40 3 -40 7 0 4 16 23 35 43 45 46 55 90 26 119
-27 27 -91 29 -114 3z"/>
<path d="M754 1852 c-11 -7 -34 -45 -34 -56 0 -13 48 -5 54 9 3 8 15 15 26 15
33 0 25 -41 -16 -81 -35 -33 -64 -78 -64 -99 0 -6 29 -10 75 -10 68 0 75 2 75
20 0 16 -7 20 -35 20 -19 0 -35 3 -35 6 0 4 16 24 35 45 60 67 41 139 -36 139
-19 0 -39 -4 -45 -8z"/>
<path d="M224 1152 c-11 -7 -34 -45 -34 -56 0 -13 48 -5 54 9 3 8 15 15 26 15
33 0 25 -41 -16 -81 -35 -33 -64 -78 -64 -99 0 -6 29 -10 75 -10 68 0 75 2 75
20 0 16 -7 20 -35 20 -19 0 -35 3 -35 6 0 4 16 24 35 45 60 67 41 139 -36 139
-19 0 -39 -4 -45 -8z"/>
<path d="M476 1138 c-21 -29 -20 -35 5 -41 12 -3 22 0 26 9 3 8 14 14 24 14
26 0 25 -32 -2 -48 -22 -14 -21 -37 1 -37 18 0 34 -29 27 -49 -8 -20 -43 -21
-51 -1 -8 22 -46 19 -46 -3 0 -50 91 -71 130 -30 24 26 26 65 3 90 -13 14 -14
21 -5 30 18 18 14 53 -6 71 -28 25 -87 22 -106 -5z"/>
<path d="M740 1133 l-21 -27 22 -8 c15 -6 25 -4 34 8 7 10 19 15 29 11 22 -9
20 -24 -4 -37 -19 -10 -29 -51 -12 -49 29 5 46 -18 36 -46 -8 -20 -41 -19 -52
1 -10 17 -43 16 -49 -1 -2 -6 6 -21 17 -33 26 -27 79 -29 111 -4 27 23 31 79
6 97 -12 8 -13 15 -5 23 17 17 12 64 -8 79 -31 23 -80 16 -104 -14z"/>
<path d="M223 440 c-44 -40 -39 -176 7 -200 35 -19 77 -12 99 16 27 34 27 64
0 99 -18 22 -28 26 -55 23 -38 -4 -40 -1 -20 28 13 16 18 17 35 7 28 -17 51
-16 51 1 0 44 -79 62 -117 26z m75 -139 c-4 -38 -42 -36 -46 3 -2 16 2 32 9
37 20 12 40 -11 37 -40z"/>
</g>
</svg>
